<?xml version="1.0" encoding="UTF-8"?><svg id="Ebene_2" xmlns="http://www.w3.org/2000/svg" viewBox="0 0 1021.47 766.35"><defs><style>.cls-1,.cls-2,.cls-3,.cls-4,.cls-5,.cls-6{stroke-miterlimit:10;}.cls-1,.cls-2,.cls-3,.cls-4,.cls-6{fill:none;}.cls-1,.cls-3,.cls-4,.cls-5,.cls-6{stroke:#000;}.cls-2{stroke:#0083ae;}.cls-2,.cls-4{stroke-width:2px;}.cls-3,.cls-5{stroke-width:10px;}.cls-5{fill:#fff;}.cls-6{stroke-width:1.84px;}</style></defs><g id="Ebene_1-2"><g><g><line class="cls-5" x1="167.72" y1="195.49" x2="376.44" y2="195.49"/><line class="cls-5" x1="501.03" y1="195.49" x2="756.67" y2="195.49"/><polyline class="cls-3" points="826.24 195.49 1005.84 195.49 1005.84 713.24 15.64 713.24 15.64 195.49 73.88 195.49"/><polyline class="cls-3" points="15.64 195.49 15.64 108.12 219.5 108.12 219.5 195.49"/><polyline class="cls-3" points="167.72 108.12 167.72 53.11 918.47 53.11 918.47 195.49 729.16 195.49 729.16 400.97"/><polyline class="cls-3" points="729.16 475.4 729.16 562.77 1005.84 562.77"/><polyline class="cls-3" points="323.05 713.24 323.05 536.89 400.71 536.89 400.71 578.95"/><rect class="cls-4" x="191.99" y="320.89" width="98.43" height="98.16"/><polygon class="cls-4" points="187.41 350.82 169.34 353.51 169.34 385.6 187.41 389.11 187.41 350.82"/><polygon class="cls-6" points="295.01 390.19 310.34 387.5 310.34 355.41 295.01 351.9 295.01 390.19"/><polygon class="cls-4" points="260.35 318.14 257.66 300.08 225.57 300.08 222.06 318.14 260.35 318.14"/><polygon class="cls-4" points="222.06 421.78 224.76 439.85 256.85 439.85 260.35 421.78 222.06 421.78"/><rect class="cls-4" x="633.88" y="230.37" width="43.15" height="157.48"/><polygon class="cls-4" points="699.14 383.18 677.03 387.85 677.03 230.37 699.14 233.42 699.14 383.18"/><line class="cls-3" x1="729.16" y1="646.37" x2="729.16" y2="713.24"/><rect class="cls-4" x="883.06" y="483.5" width="120.81" height="78.74"/><rect class="cls-4" x="782.02" y="195.49" width="139.69" height="183.37"/><polyline class="cls-4" points="451.95 713.24 451.95 646.37 558.2 646.37 558.2 713.24"/><polyline class="cls-4" points="19.95 633.42 246.47 633.42 246.47 536.89 323.05 536.89"/><rect class="cls-2" x="535.15" y="230.37" width="98.74" height="157.48"/><polygon class="cls-4" points="962.61 478.4 959.92 460.33 927.83 460.33 924.32 478.4 962.61 478.4"/></g><rect class="cls-1" x=".5" y=".5" width="1020.47" height="765.35"/></g></g></svg>