<?xml version="1.0" encoding="UTF-8"?><svg id="Ebene_2" xmlns="http://www.w3.org/2000/svg" viewBox="0 0 1247.24 935.43"><defs><style>.cls-1{stroke:#0083ae;}.cls-1,.cls-2,.cls-3,.cls-4,.cls-5{fill:none;}.cls-1,.cls-2,.cls-3,.cls-5{stroke-miterlimit:10;}.cls-1,.cls-3{stroke-width:2px;}.cls-2{stroke-width:10px;}.cls-2,.cls-3,.cls-5{stroke:#000;}.cls-5{stroke-width:2.14px;}</style></defs><g id="Ebene_1-2"><g><rect class="cls-4" width="1247.24" height="935.43"/><g><g><rect class="cls-3" x="849.33" y="392.15" width="157.48" height="43.15"/><polygon class="cls-3" points="854 457.41 849.33 435.3 1006.81 435.3 1003.76 457.41 854 457.41"/><rect class="cls-3" x="523.31" y="776.96" width="105.02" height="36.14"/><rect class="cls-2" x="19.31" y="118.3" width="1208.63" height="698.84"/><polyline class="cls-2" points="550 381.9 458.86 381.9 458.86 392.15 458.86 118.3"/><polyline class="cls-2" points="634.68 381.36 702.63 381.36 702.63 392.15 702.63 118.3"/><line class="cls-2" x1="458.86" y1="473.05" x2="458.86" y2="547.47"/><line class="cls-2" x1="19.31" y1="510.26" x2="458.86" y2="510.26"/><line class="cls-2" x1="458.86" y1="628.91" x2="458.86" y2="817.14"/><line class="cls-2" x1="702.63" y1="577.14" x2="705.33" y2="817.14"/><polyline class="cls-2" points="702.63 495.16 702.63 476.24 702.63 467.72"/><line class="cls-2" x1="1227.94" y1="476.24" x2="702.63" y2="476.24"/><rect class="cls-3" x="105.87" y="170.22" width="269.66" height="173.12" transform="translate(497.48 16.08) rotate(90)"/><rect class="cls-3" x="704.43" y="736.78" width="408.63" height="80.36"/><line class="cls-2" x1="1113.06" y1="476.24" x2="1113.06" y2="528.6"/><line class="cls-2" x1="1113.06" y1="597.63" x2="1113.06" y2="817.14"/><rect class="cls-5" x="840.12" y="495.07" width="78.56" height="141.35"/><polygon class="cls-3" points="834.63 517.18 816.57 519.88 816.57 551.97 834.63 555.48 834.63 517.18"/><polygon class="cls-3" points="924.16 555.48 942.23 552.78 942.23 520.69 924.16 517.18 924.16 555.48"/><polygon class="cls-3" points="834.63 582.57 816.57 585.27 816.57 617.36 834.63 620.87 834.63 582.57"/><polygon class="cls-3" points="924.16 620.87 942.23 618.17 942.23 586.08 924.16 582.57 924.16 620.87"/><rect class="cls-3" x="1144.34" y="249.1" width="78.74" height="120.81"/><polygon class="cls-3" points="1139.96 290.35 1121.9 293.05 1121.9 325.14 1139.96 328.65 1139.96 290.35"/></g><rect class="cls-1" x="878.7" y="264.04" width="98.74" height="157.48" transform="translate(1270.85 -585.29) rotate(90)"/></g></g></g></svg>